<?xml version="1.0" encoding="utf-8"?>
<!-- Generator: Adobe Illustrator 25.0.0, SVG Export Plug-In . SVG Version: 6.00 Build 0)  -->
<svg version="1.1" id="Layer_1" xmlns="http://www.w3.org/2000/svg" xmlns:xlink="http://www.w3.org/1999/xlink" x="0px" y="0px"
	 viewBox="0 0 22 22" style="enable-background:new 0 0 22 22;" xml:space="preserve">
<style type="text/css">
	.st0{fill:#666666;}
</style>
<path class="st0" d="M12.8,20.4H9.2c-0.3,0-0.5-0.2-0.5-0.5v-6.6H6.4c-0.3,0-0.5-0.2-0.5-0.5V9c0-0.3,0.2-0.5,0.5-0.5h2.2V6.3
	c0-1.3,0.5-2.6,1.5-3.6c1-1,2.3-1.5,3.6-1.5h2.8c0.3,0,0.5,0.2,0.5,0.5v3.6C17,5.7,16.8,6,16.5,6h-2.8c-0.1,0-0.2,0-0.3,0.1
	c-0.1,0.1-0.1,0.2-0.1,0.2v2.1h3.1c0.2,0,0.3,0.1,0.4,0.2C17,8.8,17.1,9,17,9.2l-0.9,3.6c-0.1,0.2-0.3,0.4-0.5,0.4h-2.2v6.6
	C13.4,20.1,13.1,20.4,12.8,20.4z M9.7,19.3h2.6v-6.6c0-0.3,0.2-0.5,0.5-0.5h2.3l0.6-2.5h-3c-0.3,0-0.5-0.2-0.5-0.5V6.3
	c0-0.4,0.2-0.8,0.4-1c0.3-0.3,0.6-0.4,1-0.4H16V2.4h-2.2c-1.1,0-2.1,0.4-2.9,1.2c-0.8,0.7-1.2,1.7-1.2,2.8V9c0,0.3-0.2,0.5-0.5,0.5
	H7v2.5h2.2c0.3,0,0.5,0.2,0.5,0.5V19.3z"/>
</svg>
